<svg width="32" height="32" viewBox="0 0 32 32" fill="none" xmlns="http://www.w3.org/2000/svg">
<g clip-path="url(#clip0_604_170)">
<path d="M18 10C18 9.73481 18.1053 9.48046 18.2929 9.29292C18.4804 9.10539 18.7348 9.00003 19 9.00003H31C31.2652 9.00003 31.5195 9.10539 31.7071 9.29292C31.8946 9.48046 32 9.73481 32 10C32 10.2652 31.8946 10.5196 31.7071 10.7071C31.5195 10.8947 31.2652 11 31 11H19C18.7348 11 18.4804 10.8947 18.2929 10.7071C18.1053 10.5196 18 10.2652 18 10ZM31 15H19C18.7348 15 18.4804 15.1054 18.2929 15.2929C18.1053 15.4805 18 15.7348 18 16C18 16.2652 18.1053 16.5196 18.2929 16.7071C18.4804 16.8947 18.7348 17 19 17H31C31.2652 17 31.5195 16.8947 31.7071 16.7071C31.8946 16.5196 32 16.2652 32 16C32 15.7348 31.8946 15.4805 31.7071 15.2929C31.5195 15.1054 31.2652 15 31 15ZM31 21H22C21.7348 21 21.4804 21.1054 21.2929 21.2929C21.1053 21.4805 21 21.7348 21 22C21 22.2652 21.1053 22.5196 21.2929 22.7071C21.4804 22.8947 21.7348 23 22 23H31C31.2652 23 31.5195 22.8947 31.7071 22.7071C31.8946 22.5196 32 22.2652 32 22C32 21.7348 31.8946 21.4805 31.7071 21.2929C31.5195 21.1054 31.2652 21 31 21ZM18.9687 23.75C19.0014 23.8772 19.0087 24.0097 18.9902 24.1397C18.9717 24.2697 18.9278 24.3949 18.8609 24.5079C18.7941 24.621 18.7056 24.7198 18.6005 24.7986C18.4955 24.8775 18.376 24.9349 18.2487 24.9675C18.1672 24.9895 18.0831 25.0004 17.9987 25C17.7769 25.0001 17.5614 24.9265 17.386 24.7908C17.2107 24.655 17.0854 24.4648 17.03 24.25C16.26 21.2575 13.2375 19 9.99872 19C6.75997 19 3.73747 21.2563 2.96747 24.25C2.90117 24.507 2.73551 24.727 2.50695 24.8618C2.27839 24.9966 2.00565 25.0351 1.74872 24.9688C1.49179 24.9025 1.27173 24.7368 1.13693 24.5083C1.00214 24.2797 0.963667 24.007 1.02997 23.75C1.72872 21.0363 3.75997 18.8388 6.33747 17.75C5.34501 16.9856 4.61671 15.9297 4.2547 14.7304C3.89269 13.5311 3.91514 12.2486 4.3189 11.0628C4.72266 9.87689 5.48747 8.84713 6.50608 8.11791C7.52469 7.38869 8.746 6.99658 9.99872 6.99658C11.2514 6.99658 12.4728 7.38869 13.4914 8.11791C14.51 8.84713 15.2748 9.87689 15.6785 11.0628C16.0823 12.2486 16.1047 13.5311 15.7427 14.7304C15.3807 15.9297 14.6524 16.9856 13.66 17.75C16.2387 18.8388 18.27 21.0363 18.9687 23.75ZM9.99997 17C10.7911 17 11.5645 16.7654 12.2223 16.3259C12.88 15.8864 13.3927 15.2617 13.6955 14.5308C13.9982 13.7999 14.0775 12.9956 13.9231 12.2197C13.7688 11.4437 13.3878 10.731 12.8284 10.1716C12.269 9.61219 11.5563 9.23123 10.7803 9.07689C10.0044 8.92255 9.20014 9.00176 8.46924 9.30451C7.73833 9.60726 7.11362 10.12 6.67409 10.7777C6.23457 11.4355 5.99997 12.2089 5.99997 13C5.99997 14.0609 6.4214 15.0783 7.17154 15.8285C7.92169 16.5786 8.93911 17 9.99997 17Z" fill="white"/>
</g>
<defs>
<clipPath id="clip0_604_170">
<rect width="32" height="32" fill="white"/>
</clipPath>
</defs>
</svg>
