<svg width="26" height="28" viewBox="0 0 26 28" fill="none" xmlns="http://www.w3.org/2000/svg">
<path d="M23.9838 12.25L2.98376 0.263756C2.62978 0.0651876 2.22376 -0.0209822 1.81964 0.0166935C1.41552 0.0543693 1.03242 0.214107 0.721243 0.474688C0.410065 0.735269 0.185534 1.08436 0.0774749 1.47558C-0.0305839 1.86681 -0.017055 2.28165 0.116264 2.66501L3.99126 13.9738C3.99077 13.9779 3.99077 13.9821 3.99126 13.9863C3.99056 13.9904 3.99056 13.9946 3.99126 13.9988L0.116264 25.3325C0.00949649 25.6341 -0.0233755 25.9568 0.0204071 26.2737C0.0641897 26.5906 0.183349 26.8924 0.367885 27.1537C0.55242 27.415 0.796947 27.6283 1.08094 27.7755C1.36494 27.9228 1.68011 27.9998 2.00001 28C2.3471 27.9991 2.68809 27.9087 2.99001 27.7375L23.9788 15.7313C24.2884 15.5578 24.5462 15.3051 24.7259 14.9991C24.9056 14.6931 25.0007 14.3448 25.0013 13.99C25.002 13.6351 24.9082 13.2864 24.7296 12.9798C24.551 12.6732 24.294 12.4195 23.985 12.245L23.9838 12.25ZM2.00001 26V25.9888L5.76751 15H13C13.2652 15 13.5196 14.8947 13.7071 14.7071C13.8947 14.5196 14 14.2652 14 14C14 13.7348 13.8947 13.4804 13.7071 13.2929C13.5196 13.1054 13.2652 13 13 13H5.77751L2.00751 2.01501L2.00001 2.00001L23 13.9788L2.00001 26Z" fill="white"/>
</svg>
