<svg width="150" height="150" viewBox="0 0 150 150" fill="none" xmlns="http://www.w3.org/2000/svg">
<path d="M75 2.34375C34.8633 2.34375 2.34375 34.8633 2.34375 75C2.34375 115.137 34.8633 147.656 75 147.656C115.137 147.656 147.656 115.137 147.656 75C147.656 34.8633 115.137 2.34375 75 2.34375ZM75 30.4688C89.2383 30.4688 100.781 42.0117 100.781 56.25C100.781 70.4883 89.2383 82.0312 75 82.0312C60.7617 82.0312 49.2188 70.4883 49.2188 56.25C49.2188 42.0117 60.7617 30.4688 75 30.4688ZM75 131.25C57.8027 131.25 42.3926 123.457 32.0801 111.27C37.5879 100.898 48.3691 93.75 60.9375 93.75C61.6406 93.75 62.3438 93.8672 63.0176 94.0723C66.8262 95.3027 70.8105 96.0938 75 96.0938C79.1895 96.0938 83.2031 95.3027 86.9824 94.0723C87.6562 93.8672 88.3594 93.75 89.0625 93.75C101.631 93.75 112.412 100.898 117.92 111.27C107.607 123.457 92.1973 131.25 75 131.25Z" fill="#550FED"/>
</svg>
