<svg xmlns:dc="http://purl.org/dc/elements/1.1/" xmlns:cc="http://creativecommons.org/ns#" xmlns:rdf="http://www.w3.org/1999/02/22-rdf-syntax-ns#" xmlns:svg="http://www.w3.org/2000/svg" xmlns="http://www.w3.org/2000/svg" xmlns:xlink="http://www.w3.org/1999/xlink" xmlns:sodipodi="http://sodipodi.sourceforge.net/DTD/sodipodi-0.dtd" xmlns:inkscape="http://www.inkscape.org/namespaces/inkscape" version="1.0" width="700" height="700" id="svg2408" sodipodi:version="0.32" inkscape:version="0.92.3 (2405546, 2018-03-11)" sodipodi:docname="volkswagen-logo.svg" inkscape:output_extension="org.inkscape.output.svg.inkscape" inkscape:export-filename="C:\Users\alex\sites\volkswagen-logo-0.png" inkscape:export-xdpi="561.73999" inkscape:export-ydpi="561.73999">
  <metadata id="metadata40" fill="#000000">
    <rdf:RDF fill="#000000">
      <cc:Work rdf:about="" fill="#000000">
        <dc:format fill="#000000">image/svg+xml</dc:format>
        <dc:type rdf:resource="http://purl.org/dc/dcmitype/StillImage" fill="#000000"/>
        <dc:title fill="#000000"/>
      </cc:Work>
    </rdf:RDF>
  </metadata>
  <sodipodi:namedview inkscape:window-height="838" inkscape:window-width="1600" inkscape:pageshadow="2" inkscape:pageopacity="0.0" guidetolerance="10.0" gridtolerance="10.0" objecttolerance="10.0" borderopacity="1.0" bordercolor="#666666" pagecolor="#ffffff" id="base" showgrid="false" inkscape:zoom="0.28875" inkscape:cx="763.89429" inkscape:cy="2.9746559" inkscape:window-x="-8" inkscape:window-y="-8" inkscape:current-layer="g3303" fit-margin-top="0" fit-margin-left="0" fit-margin-right="0" fit-margin-bottom="0" inkscape:window-maximized="1" fill="#000000"/>
  <defs id="defs2410" fill="#000000">
    <inkscape:perspective sodipodi:type="inkscape:persp3d" inkscape:vp_x="0 : 800 : 1" inkscape:vp_y="0 : 1000 : 0" inkscape:vp_z="1600 : 800 : 1" inkscape:persp3d-origin="800 : 533.33333 : 1" id="perspective42" fill="#000000"/>
    <linearGradient id="linearGradient3219" fill="#000000">
      <stop id="stop3221" style="stop-color:#ffffff;stop-opacity:1" offset="0" fill="#000000"/>
      <stop id="stop3227" style="stop-color:#ffffff;stop-opacity:1" offset="0.5" fill="#000000"/>
      <stop id="stop3223" style="stop-color:#989b9e;stop-opacity:1" offset="1" fill="#000000"/>
    </linearGradient>
    <linearGradient x1="176.53017" y1="265.2677" x2="404.60199" y2="589.9801" id="linearGradient3324" xlink:href="#linearGradient3219" gradientUnits="userSpaceOnUse" gradientTransform="matrix(0.31318087,0,0,0.31318087,38.739033,827.52137)" fill="#000000"/>
    <filter id="filter3293" fill="#000000">
      <feGaussianBlur id="feGaussianBlur3295" stdDeviation="5.1378907" inkscape:collect="always" fill="#000000"/>
    </filter>
    <radialGradient cx="243.66701" cy="294.6665" r="307.66959" id="SVGID_2_" gradientUnits="userSpaceOnUse" fill="#000000">
      <stop id="stop18" style="stop-color:#209bd3;stop-opacity:1" offset="0" fill="#000000"/>
      <stop id="stop20" style="stop-color:#136194;stop-opacity:1" offset="0.54570001" fill="#000000"/>
      <stop id="stop22" style="stop-color:#0a3b6c;stop-opacity:1" offset="1" fill="#000000"/>
    </radialGradient>
    <radialGradient cx="243.66701" cy="294.6665" r="307.66959" id="radialGradient3322" xlink:href="#SVGID_2_" gradientUnits="userSpaceOnUse" fill="#000000"/>
    <linearGradient x1="157.4238" y1="228.7114" x2="437.423" y2="612.62152" id="SVGID_1_" gradientUnits="userSpaceOnUse" fill="#000000">
      <stop id="stop9" style="stop-color:#1077b9;stop-opacity:1" offset="0" fill="#000000"/>
      <stop id="stop11" style="stop-color:#042a54;stop-opacity:1" offset="1" fill="#000000"/>
    </linearGradient>
    <linearGradient x1="157.4238" y1="228.7114" x2="437.423" y2="612.62152" id="linearGradient3320" xlink:href="#SVGID_1_" gradientUnits="userSpaceOnUse" fill="#000000"/>
  </defs>
  <g id="layer1" transform="matrix(0.634375,0,0,0.6346362,-0.02403214,-690.4119)">
    <g transform="matrix(3.2000005,0,0,3.2000005,-152.44813,-547.02412)" id="g2408">
      <path d="m 210.07254,959.31556 c 0,43.15384 -34.98307,78.13684 -78.13689,78.13684 -43.153812,0 -78.13689,-34.983 -78.13689,-78.13684 0,-43.15386 34.983078,-78.13693 78.13689,-78.13693 43.15382,0 78.13689,34.98307 78.13689,78.13693 z" id="path3301" style="opacity:1;fill:#bec7cb;fill-opacity:1;stroke:none;stroke-width:0.31662586;stroke-miterlimit:18.20000076;stroke-dasharray:none;stroke-opacity:1" inkscape:connector-curvature="0" inkscape:export-xdpi="4.6325083" inkscape:export-ydpi="4.6325083"/>
      <g transform="translate(-0.02699219,-0.055)" id="g3303">
        <g id="Ebene_2" inkscape:export-xdpi="4.6325083" inkscape:export-ydpi="4.6325083" transform="matrix(0.31318087,0,0,0.31318087,38.739037,827.52136)">
          <linearGradient x1="157.4238" y1="228.7114" x2="437.423" y2="612.62152" id="linearGradient2438" gradientUnits="userSpaceOnUse" fill="#000000">
            <stop id="stop2440" style="stop-color:#1077b9;stop-opacity:1" offset="0" fill="#000000"/>
            <stop id="stop2442" style="stop-color:#042a54;stop-opacity:1" offset="1" fill="#000000"/>
          </linearGradient>
          <circle cx="297.66699" cy="421" r="241.334" id="circle13" style="fill:url(#linearGradient3320);stroke:none"/>
        </g>
        <path d="m 190.47252,959.02375 c 0.004,33.09932 -26.55641,59.93355 -59.32133,59.93355 -32.764914,0 -59.325074,-26.83423 -59.321325,-59.93355 -0.0038,-33.09926 26.556411,-59.93354 59.321325,-59.93354 32.76492,0 59.32508,26.83428 59.32133,59.93354 z" id="path3297" style="opacity:1;fill:#ffffff;fill-opacity:1;stroke:none;stroke-width:0.06531139;stroke-miterlimit:18.20000076;stroke-dasharray:none;stroke-opacity:1" inkscape:connector-curvature="0" inkscape:export-xdpi="4.6325083" inkscape:export-ydpi="4.6325083"/>
        <g transform="matrix(0.31318087,0,0,0.31318087,38.710734,827.68377)" id="Ebene_5" inkscape:export-xdpi="4.6325083" inkscape:export-ydpi="4.6325083">
          <radialGradient cx="243.66701" cy="294.6665" r="307.66959" id="radialGradient2447" gradientUnits="userSpaceOnUse" fill="#000000">
            <stop id="stop2449" style="stop-color:#209bd3;stop-opacity:1" offset="0" fill="#000000"/>
            <stop id="stop2451" style="stop-color:#136194;stop-opacity:1" offset="0.54570001" fill="#000000"/>
            <stop id="stop2453" style="stop-color:#0a3b6c;stop-opacity:1" offset="1" fill="#000000"/>
          </radialGradient>
          <ellipse cx="297.66699" cy="420.66699" rx="170" ry="170.666" id="ellipse24" style="fill:url(#radialGradient3322)"/>
        </g>
        <path d="m 258.21139,1128.8541 c -113.44279,0 -205.53125,92.0885 -205.53126,205.5313 1e-5,113.4428 92.08847,205.4999 205.53126,205.5 113.44283,0 205.50001,-92.0572 205.5,-205.5 4e-5,-113.4428 -92.05721,-205.5313 -205.5,-205.5313 z m -1.625,28.4688 c 17.52821,-0.1279 35.05221,2.2797 51.84375,7.25 l -26.09375,57.5937 -25.90625,56.4375 -25.46875,-56.7187 -26.1875,-56.5313 c 16.74647,-5.234 34.28432,-7.9033 51.8125,-8.0312 z m 89.53125,23.4062 c 17.48917,10.1788 35.85903,23.9558 54,48.0625 -26.23413,62.4077 -54.7327,129.2791 -81.3125,191.9063 l -35.125,-80.4063 h -55.03125 l -36.03125,79.0313 c -27.66793,-62.1001 -54.38703,-123.9999 -78.59375,-187.5625 17.04806,-24.0896 34.33989,-37.1163 51.6875,-48.625 20.73374,47.4939 41.485,94.9748 62.21875,142.4687 h 55.65625 c 20.87743,-47.9648 41.64392,-97.0293 62.53125,-144.875 z m 79.53125,96.4063 c 2.64295,8.2011 7.21654,23.272 8.9375,46.6875 0.84666,11.5197 0.39933,26.9746 -2.34375,41.9687 -4.63989,25.3623 -15.31628,51.3502 -32.21875,73.9063 -3.51292,4.6878 -7.31867,9.2194 -11.40625,13.6562 -15.46385,16.7848 -35.4212,32.0455 -59.78125,42.9063 7.44937,-13.2618 14.26645,-26.7437 20.40625,-40.1563 8.64384,-18.8828 17.31304,-37.7433 25.3125,-56.8437 1.91563,-4.574 4.04827,-9.0661 6.09375,-13.5938 7.26394,-16.0787 14.16855,-32.667 20.84375,-48.9687 7.19531,-17.572 17.72248,-41.5552 24.15625,-59.5625 z m -336.34375,4.375 c 6.43377,18.0073 13.08594,36.428 20.28125,54 6.6752,16.3018 13.67356,32.6712 20.9375,48.75 16.75804,37.0938 34.29799,73.7428 53.09375,110.3437 -32.03821,-15.4223 -53.45049,-35.5709 -69.46875,-57.9062 -25.0277,-34.8978 -33.09589,-73.2797 -32.75,-103.8125 0.27294,-24.0942 5.18727,-43.4124 7.90625,-51.375 z m 166.46875,107.4062 53.28125,114.6875 c -14.02168,4.7074 -28.99497,6.7019 -44.25,7.0938 -2.42598,0.062 -4.84359,0.076 -7.28125,0.062 -20.38725,-0.1129 -37.75512,-2.8316 -53.65625,-8.2813 z" id="path3299" style="opacity:0.65;fill:#000000;fill-opacity:1;stroke:none;stroke-width:0.25299999;stroke-miterlimit:18.20000076;stroke-dasharray:none;stroke-opacity:1;filter:url(#filter3293)" inkscape:connector-curvature="0" inkscape:export-xdpi="4.6325083" inkscape:export-ydpi="4.6325083" transform="matrix(0.31318087,0,0,0.31318087,53.69916,543.39602)"/>
        <path d="m 264.2225,1127.0832 c -113.44279,0 -205.53125,92.0885 -205.53126,205.5313 10e-6,113.4428 92.08847,205.5 205.53126,205.5 113.44283,0 205.50001,-92.0572 205.5,-205.5 4e-5,-113.4428 -92.05721,-205.5313 -205.5,-205.5313 z m -1.625,28.4688 c 17.52821,-0.1279 35.05221,2.2797 51.84375,7.25 l -26.09375,57.5937 -25.90625,56.4375 -25.46875,-56.7187 -26.1875,-56.5313 c 16.74647,-5.2339 34.28432,-7.9033 51.8125,-8.0312 z m 89.53125,23.4062 c 17.48917,10.1789 35.85903,23.9559 54,48.0625 -26.23413,62.4078 -54.7327,129.2792 -81.3125,191.9063 l -35.125,-80.4063 H 234.66 l -36.03125,79.0313 c -27.66793,-62.1 -54.38703,-123.9998 -78.59375,-187.5625 17.04806,-24.0895 34.33989,-37.1163 51.6875,-48.625 20.73374,47.4939 41.485,94.9748 62.21875,142.4687 h 55.65625 c 20.87743,-47.9648 41.64392,-97.0292 62.53125,-144.875 z m 79.53125,96.4063 c 2.64295,8.2012 7.21654,23.272 8.9375,46.6875 0.84666,11.5197 0.39933,26.9747 -2.34375,41.9687 -4.63989,25.3623 -15.31628,51.3502 -32.21875,73.9063 -3.51292,4.6879 -7.31867,9.2195 -11.40625,13.6562 -15.46385,16.7849 -35.4212,32.0456 -59.78125,42.9063 7.44937,-13.2617 14.26645,-26.7436 20.40625,-40.1563 8.64384,-18.8827 17.31304,-37.7432 25.3125,-56.8437 1.91563,-4.574 4.04827,-9.0661 6.09375,-13.5938 7.26394,-16.0787 14.16855,-32.6669 20.84375,-48.9687 7.19531,-17.572 17.72248,-41.5552 24.15625,-59.5625 z m -336.34375,4.375 c 6.43377,18.0074 13.08594,36.428 20.28125,54 6.6752,16.3018 13.67356,32.6713 20.9375,48.75 16.75804,37.0939 34.29799,73.7429 53.09375,110.3437 -32.03821,-15.4222 -53.45049,-35.5709 -69.46875,-57.9062 -25.0277,-34.8977 -33.09589,-73.2797 -32.75,-103.8125 0.27294,-24.0941 5.18727,-43.4123 7.90625,-51.375 z m 166.46875,107.4062 53.28125,114.6875 c -14.02168,4.7074 -28.99497,6.702 -44.25,7.0938 -2.42598,0.062 -4.84359,0.076 -7.28125,0.062 -20.38725,-0.1129 -37.75512,-2.8315 -53.65625,-8.2813 z" id="path3229" style="opacity:0.5;fill:#000000;fill-opacity:1;stroke:none;stroke-width:0.25299999;stroke-miterlimit:18.20000076;stroke-dasharray:none;stroke-opacity:1;filter:url(#filter3293)" inkscape:connector-curvature="0" inkscape:export-xdpi="4.6325083" inkscape:export-ydpi="4.6325083" transform="matrix(0.31318087,0,0,0.31318087,53.69916,543.39602)"/>
        <path d="m 131.97885,895.06076 c -35.528113,0 -64.368452,28.84035 -64.368455,64.36851 3e-6,35.5281 28.840342,64.35873 64.368455,64.35873 35.52812,0 64.35867,-28.83063 64.35867,-64.35873 10e-6,-35.52816 -28.83056,-64.36851 -64.35867,-64.36851 z m -0.50892,8.91588 c 5.4895,-0.04 10.97768,0.71398 16.23647,2.27056 l -8.17206,18.03724 -8.11334,17.67519 -7.97633,-17.76325 -8.20142,-17.70452 c 5.24467,-1.63916 10.73719,-2.47514 16.22668,-2.51522 z m 28.03948,7.33039 c 5.47727,3.18784 11.23036,7.50252 16.91176,15.05227 -8.21603,19.54492 -17.14123,40.48778 -25.46552,60.10137 l -11.00048,-25.18168 h -17.23473 l -11.28429,24.75108 c -8.66507,-19.44856 -17.032984,-38.83439 -24.614065,-58.74104 5.339123,-7.54437 10.754595,-11.62407 16.187535,-15.22839 6.49341,14.87417 12.99231,29.74431 19.48572,44.61848 h 17.43047 c 6.53842,-15.02163 13.04208,-30.38771 19.5836,-45.37209 z m 24.90766,30.19262 c 0.82772,2.56844 2.26008,7.28834 2.79905,14.62165 0.26516,3.60773 0.12507,8.44796 -0.73401,13.14379 -1.45313,7.94297 -4.79677,16.08188 -10.0903,23.14598 -1.10018,1.4682 -2.29207,2.8874 -3.57222,4.2769 -4.84298,5.25673 -11.09324,10.03613 -18.72234,13.43743 2.333,-4.1533 4.46798,-8.3755 6.39085,-12.57623 2.70708,-5.9136 5.4221,-11.8204 7.92739,-17.80232 0.59994,-1.43245 1.26783,-2.83929 1.90844,-4.25731 2.27493,-5.03553 4.43732,-10.23062 6.52786,-15.33607 2.25344,-5.50321 5.55034,-13.01427 7.56528,-18.65382 z m -105.336426,1.37018 c 2.014934,5.63955 4.098266,11.40852 6.351699,16.91178 2.090547,5.1054 4.282297,10.232 6.557225,15.26753 5.248296,11.61713 10.741472,23.09493 16.627952,34.55756 -10.033759,-4.8299 -16.739678,-11.14013 -21.756287,-18.13513 -7.838199,-10.92931 -10.365001,-22.9498 -10.256675,-32.51206 0.08548,-7.54585 1.624554,-13.59591 2.476086,-16.08968 z m 52.134826,33.63755 16.68667,35.91792 c -4.39133,1.4743 -9.08067,2.099 -13.85826,2.2217 -0.75977,0.019 -1.51692,0.024 -2.28034,0.019 -6.3849,-0.035 -11.82418,-0.8867 -16.80411,-2.5935 z" id="path3198" style="fill:url(#linearGradient3324);fill-opacity:1;stroke:none;stroke-width:0.17318901;stroke-miterlimit:18.20000076;stroke-dasharray:none;stroke-opacity:1" inkscape:connector-curvature="0" inkscape:export-xdpi="4.6325083" inkscape:export-ydpi="4.6325083"/>
        <rect style="fill:#a1a3a7;fill-opacity:1;stroke:none;stroke-width:1.05172074;stroke-linecap:butt;stroke-miterlimit:4;stroke-dasharray:none;stroke-dashoffset:0;stroke-opacity:1;paint-order:fill markers stroke" id="rect857" width="346.32028" height="346.17773" x="437.60907" y="510.21829" inkscape:export-filename="C:\Users\alex\sites\volkswagen-logo-9.png" inkscape:export-xdpi="294.95175" inkscape:export-ydpi="294.95175"/>
        <path d="m 610.7692,787.26356 c -56.84166,0 -103.57812,-47.13813 -103.57812,-103.95639 0,-11.78454 2.10524,-23.14819 5.89465,-34.09097 l 60.63112,117.84532 c 0.84211,1.6835 1.6842,2.94613 3.78945,2.94613 2.10525,0 2.94735,-1.26263 3.78944,-2.94613 l 28.21031,-62.71055 c 0.42105,-0.84174 0.8421,-1.26261 1.26315,-1.26261 0.84209,0 0.84209,0.84174 1.26315,1.26261 l 28.63136,62.71055 c 0.84209,1.6835 1.6842,2.94613 3.78944,2.94613 2.10525,0 2.94734,-1.26263 3.78945,-2.94613 L 708.8737,649.2162 c 3.78945,10.52191 5.89471,21.88555 5.89471,34.09096 -0.42106,56.81827 -47.15755,103.9564 -103.99921,103.9564 z m 0,-130.89248 c -0.8421,0 -0.8421,-0.84174 -1.26315,-1.26262 l -32.42081,-69.86543 c 10.52625,-3.78788 21.89458,-5.89226 33.68396,-5.89226 11.78939,0 23.15772,2.10438 33.68395,5.89226 l -32.4208,69.86543 c -0.42106,0.42088 -0.42106,1.26262 -1.26315,1.26262 z m -34.105,75.7577 c -0.8421,0 -0.8421,-0.84175 -1.26315,-1.26262 L 522.34881,629.01414 c 9.26308,-15.15153 22.73672,-27.77781 38.31551,-36.61621 l 37.4734,80.8082 c 0.8421,1.68351 1.6842,2.10439 2.94735,2.10439 h 19.36826 c 1.26315,0 2.10526,-0.42087 2.94735,-2.10439 l 37.05234,-80.8082 c 15.57883,8.8384 29.05242,21.46468 38.3155,36.61621 l -52.63118,101.85202 c -0.42104,0.84176 -0.84209,1.26262 -1.26313,1.26262 -0.84211,0 -0.84211,-0.84175 -1.26316,-1.26262 l -20.21037,-44.61287 c -0.84209,-1.6835 -1.6842,-2.10437 -2.94734,-2.10437 h -19.36827 c -1.26315,0 -2.10525,0.42087 -2.94734,2.10437 l -20.21038,44.61287 c -0.42105,0.42087 -0.42105,1.26262 -1.26315,1.26262 z m 34.105,69.02369 c 65.26265,0 117.89384,-52.60951 117.89384,-117.8453 0,-65.2358 -52.63119,-117.84531 -117.89384,-117.84531 -65.26269,0 -117.8938,52.60951 -117.8938,117.84531 0,65.23579 52.63111,117.8453 117.8938,117.8453 z" id="path2" style="fill:#ffffff;fill-opacity:1;stroke-width:4.20962715" inkscape:connector-curvature="0" inkscape:export-filename="C:\Users\alex\sites\volkswagen-logo-9.png" inkscape:export-xdpi="294.95175" inkscape:export-ydpi="294.95175"/>
        <path d="m 220.09261,787.26357 c -56.84166,0 -103.57812,-47.1381 -103.57812,-103.9564 0,-11.7845 2.10524,-23.1481 5.89465,-34.0909 l 60.63112,117.8453 c 0.84211,1.6835 1.6842,2.9461 3.78945,2.9461 2.10525,0 2.94735,-1.2626 3.78944,-2.9461 l 28.21031,-62.7106 c 0.42105,-0.8417 0.8421,-1.2626 1.26315,-1.2626 0.84209,0 0.84209,0.8418 1.26315,1.2626 l 28.63136,62.7106 c 0.84209,1.6835 1.6842,2.9461 3.78944,2.9461 2.10525,0 2.94734,-1.2626 3.78945,-2.9461 l 60.6311,-117.8453 c 3.78945,10.5219 5.89471,21.8855 5.89471,34.0909 -0.42106,56.8183 -47.15755,103.9564 -103.99921,103.9564 z m 0,-130.8925 c -0.8421,0 -0.8421,-0.8417 -1.26315,-1.2626 l -32.42081,-69.8654 c 10.52625,-3.7879 21.89458,-5.8923 33.68396,-5.8923 11.78939,0 23.15772,2.1044 33.68395,5.8923 l -32.4208,69.8654 c -0.42106,0.4209 -0.42106,1.2626 -1.26315,1.2626 z m -34.105,75.7577 c -0.84209,0 -0.84209,-0.8417 -1.26315,-1.2626 l -53.05224,-101.852 c 9.26308,-15.1515 22.73672,-27.7778 38.31551,-36.6162 l 37.4734,80.8082 c 0.8421,1.6835 1.6842,2.1044 2.94735,2.1044 h 19.36826 c 1.26315,0 2.10526,-0.4209 2.94735,-2.1044 l 37.05234,-80.8082 c 15.57883,8.8384 29.05242,21.4647 38.3155,36.6162 l -52.63118,101.852 c -0.42104,0.8418 -0.84209,1.2626 -1.26313,1.2626 -0.84211,0 -0.84211,-0.8417 -1.26316,-1.2626 l -20.21037,-44.6128 c -0.84209,-1.6835 -1.6842,-2.1044 -2.94734,-2.1044 h -19.36827 c -1.26315,0 -2.10525,0.4209 -2.94734,2.1044 l -20.21038,44.6128 c -0.42105,0.4209 -0.42105,1.2626 -1.26315,1.2626 z m 34.105,69.0237 c 65.26265,0 117.89384,-52.6095 117.89384,-117.8453 0,-65.2358 -52.63119,-117.8453 -117.89384,-117.8453 -65.26269,0 -117.8938,52.6095 -117.8938,117.8453 0,65.2358 52.63111,117.8453 117.8938,117.8453 z" id="path2-1" style="fill:#a1a3a7;fill-opacity:1;stroke-width:4.20962715" inkscape:connector-curvature="0" inkscape:export-filename="C:\Users\alex\sites\volkswagen-logo-2.png" inkscape:export-xdpi="80.225807" inkscape:export-ydpi="80.225807"/>
      </g>
    </g>
  </g>
  <path inkscape:connector-curvature="0" style="fill:#0d639f;fill-opacity:1;fill-rule:evenodd;stroke:none;stroke-width:1.56067622" d="m 553.60402,762.55107 c 82.11067,0 149.07754,66.95941 149.07754,149.19361 0,81.9879 -66.96687,149.07012 -149.07754,149.07012 -82.11156,0 -149.19409,-67.08222 -149.19409,-149.07012 0,-82.2342 67.08253,-149.20112 149.19409,-149.20112" id="path14" inkscape:export-xdpi="4.342309" inkscape:export-ydpi="4.342309"/>
  <path inkscape:connector-curvature="0" style="fill:#ffffff;fill-rule:evenodd;stroke:none;stroke-width:1.56067622" d="m 553.60402,781.48503 c 71.60509,0 130.13612,58.53113 130.13612,130.25965 0,71.605 -58.53103,130.01342 -130.13612,130.01342 -71.59774,0 -130.12934,-58.40842 -130.12934,-130.01342 0,-71.72852 58.5316,-130.25965 130.13666,-130.25965 z m -87.12132,60.23976 46.67983,121.09209 17.10158,-44.23004 h 44.84775 l 17.10069,44.23004 47.16724,-122.5532 c -8.31113,-10.02717 -18.32896,-18.57845 -29.57173,-25.17323 l -32.73974,90.17603 H 530.8748 l -32.87222,-90.54651 c -12.09166,6.96526 -22.72205,16.12709 -31.51988,27.00482 z m 191.72114,30.42985 -53.15709,138.68586 c 35.68627,-18.69202 60.23971,-56.08701 60.23971,-99.09582 0,-13.9309 -2.44208,-27.25096 -7.08262,-39.59004 z m -76.37421,147.72476 -0.36296,-2.807 -28.837,-74.78282 -28.84426,74.78282 -0.11707,2.3193 c 9.52515,2.6916 19.54456,4.0281 29.93504,4.0281 9.77188,0 19.18104,-1.2211 28.22566,-3.5404 z M 499.96575,1009.6195 448.1524,874.59686 c -4.15172,11.60565 -6.35476,24.075 -6.35476,37.14782 0,42.03332 23.46351,78.9334 58.16811,97.87482 z m 53.63827,-209.68074 c 9.77935,0 19.42872,1.22109 28.59614,3.6651 l -28.22531,78.08299 -28.3497,-78.20782 c 8.92162,-2.31918 18.33028,-3.54027 27.97887,-3.54027" id="path16" inkscape:export-xdpi="4.342309" inkscape:export-ydpi="4.342309"/>
</svg>