<svg width="25" height="24" viewBox="0 0 25 24" fill="none" xmlns="http://www.w3.org/2000/svg">
<path d="M21.0865 13.2382C20.8208 13.2382 20.543 13.1537 20.2773 13.0933C19.7392 12.9747 19.2104 12.8173 18.695 12.6222C18.1347 12.4184 17.5188 12.429 16.9658 12.6519C16.4128 12.8749 15.9618 13.2945 15.6996 13.8301L15.4339 14.3736C14.2574 13.7191 13.1764 12.9063 12.221 11.9579C11.2726 11.0025 10.4598 9.92151 9.80538 8.74508L10.3127 8.40689C10.8482 8.14469 11.2678 7.6937 11.4908 7.14071C11.7138 6.58772 11.7243 5.9718 11.5205 5.41147C11.3287 4.89503 11.1714 4.36645 11.0494 3.82921C10.9891 3.56349 10.9407 3.28569 10.9045 3.00788C10.7578 2.15711 10.3122 1.38666 9.6479 0.835284C8.98359 0.283906 8.14424 -0.0121675 7.28101 0.000383248H3.65752C3.13698 -0.00450429 2.6215 0.102824 2.14617 0.31506C1.67084 0.527297 1.24682 0.839459 0.902972 1.2303C0.559127 1.62113 0.30353 2.08147 0.153582 2.57997C0.00363399 3.07846 -0.037145 3.60342 0.0340212 4.11909C0.677479 9.17916 2.98841 13.8806 6.60179 17.4809C10.2152 21.0811 14.925 23.375 19.9874 24H20.4464C21.337 24.0013 22.197 23.6745 22.862 23.082C23.2442 22.7403 23.5494 22.3213 23.7576 21.8529C23.9658 21.3844 24.0722 20.8771 24.0699 20.3644V16.7409C24.0551 15.9019 23.7496 15.0941 23.2055 14.4553C22.6614 13.8165 21.9125 13.3863 21.0865 13.2382ZM21.6904 20.4852C21.6902 20.6567 21.6535 20.8262 21.5827 20.9824C21.5119 21.1386 21.4086 21.2779 21.2798 21.3911C21.1452 21.5082 20.9875 21.5957 20.8168 21.6477C20.6461 21.6998 20.4664 21.7152 20.2894 21.693C15.7659 21.113 11.5643 19.0436 8.34718 15.8112C5.1301 12.5789 3.08067 8.36744 2.52215 3.84129C2.50293 3.66436 2.51978 3.48538 2.57168 3.31515C2.62358 3.14491 2.70945 2.98697 2.82411 2.85087C2.9373 2.72203 3.07662 2.61877 3.23282 2.54796C3.38901 2.47715 3.55849 2.44042 3.72999 2.4402H7.35348C7.63436 2.43395 7.90863 2.52581 8.12908 2.69997C8.34954 2.87413 8.50238 3.11969 8.56131 3.39439C8.60962 3.72453 8.67002 4.05064 8.74249 4.37273C8.88201 5.00943 9.06771 5.63513 9.29809 6.24487L7.60712 7.02996C7.46254 7.0963 7.33249 7.19054 7.22443 7.30728C7.11637 7.42401 7.03244 7.56094 6.97745 7.71021C6.92246 7.85947 6.89749 8.01813 6.90398 8.17707C6.91048 8.33601 6.9483 8.4921 7.01529 8.63638C8.7536 12.3598 11.7467 15.3529 15.4701 17.0912C15.7642 17.212 16.094 17.212 16.3881 17.0912C16.5387 17.0373 16.6771 16.9541 16.7953 16.8462C16.9135 16.7384 17.0091 16.6082 17.0765 16.4631L17.8254 14.7722C18.4498 14.9955 19.0871 15.181 19.7338 15.3278C20.0558 15.4002 20.382 15.4606 20.7121 15.5089C20.9868 15.5679 21.2324 15.7207 21.4065 15.9412C21.5807 16.1616 21.6725 16.4359 21.6663 16.7168L21.6904 20.4852Z" fill="#550FED"/>
</svg>
