<svg width="23" height="23" viewBox="0 0 23 23" fill="none" xmlns="http://www.w3.org/2000/svg">
<path d="M15.6643 8.5874L12.7506 11.5L15.6643 14.4126C15.7465 14.4948 15.8117 14.5924 15.8562 14.6997C15.9007 14.8071 15.9236 14.9222 15.9236 15.0385C15.9236 15.1547 15.9007 15.2698 15.8562 15.3772C15.8117 15.4846 15.7465 15.5821 15.6643 15.6643C15.5821 15.7465 15.4846 15.8117 15.3772 15.8562C15.2698 15.9007 15.1547 15.9236 15.0385 15.9236C14.9222 15.9236 14.8071 15.9007 14.6997 15.8562C14.5924 15.8117 14.4948 15.7465 14.4126 15.6643L11.5 12.7506L8.58741 15.6643C8.50522 15.7465 8.40764 15.8117 8.30026 15.8562C8.19287 15.9007 8.07778 15.9236 7.96154 15.9236C7.84531 15.9236 7.73021 15.9007 7.62283 15.8562C7.51544 15.8117 7.41787 15.7465 7.33568 15.6643C7.25349 15.5821 7.18829 15.4846 7.14381 15.3772C7.09933 15.2698 7.07643 15.1547 7.07643 15.0385C7.07643 14.9222 7.09933 14.8071 7.14381 14.6997C7.18829 14.5924 7.25349 14.4948 7.33568 14.4126L10.2494 11.5L7.33568 8.5874C7.16969 8.42141 7.07643 8.19628 7.07643 7.96154C7.07643 7.72679 7.16969 7.50166 7.33568 7.33567C7.50167 7.16968 7.7268 7.07643 7.96154 7.07643C8.19629 7.07643 8.42142 7.16968 8.58741 7.33567L11.5 10.2494L14.4126 7.33567C14.4948 7.25348 14.5924 7.18828 14.6997 7.1438C14.8071 7.09932 14.9222 7.07643 15.0385 7.07643C15.1547 7.07643 15.2698 7.09932 15.3772 7.1438C15.4846 7.18828 15.5821 7.25348 15.6643 7.33567C15.7465 7.41786 15.8117 7.51543 15.8562 7.62282C15.9007 7.73021 15.9236 7.8453 15.9236 7.96154C15.9236 8.07777 15.9007 8.19287 15.8562 8.30025C15.8117 8.40764 15.7465 8.50521 15.6643 8.5874ZM23 11.5C23 13.7745 22.3255 15.9979 21.0619 17.8891C19.7983 19.7802 18.0022 21.2542 15.9009 22.1246C13.7995 22.995 11.4872 23.2228 9.25646 22.779C7.02568 22.3353 4.97658 21.24 3.36828 19.6317C1.75997 18.0234 0.664704 15.9743 0.220974 13.7435C-0.222756 11.5128 0.00498277 9.20049 0.87539 7.09914C1.7458 4.99779 3.21978 3.20174 5.11095 1.9381C7.00211 0.674463 9.22552 0 11.5 0C14.549 0.0032198 17.4722 1.21586 19.6282 3.37183C21.7841 5.5278 22.9968 8.451 23 11.5ZM21.2308 11.5C21.2308 9.57543 20.6601 7.69409 19.5908 6.09387C18.5216 4.49366 17.0019 3.24644 15.2238 2.50994C13.4457 1.77344 11.4892 1.58074 9.60162 1.9562C7.71404 2.33167 5.98018 3.25843 4.61931 4.61931C3.25844 5.98018 2.33167 7.71404 1.95621 9.60162C1.58075 11.4892 1.77345 13.4457 2.50995 15.2238C3.24644 17.0019 4.49366 18.5216 6.09388 19.5908C7.69409 20.6601 9.57544 21.2308 11.5 21.2308C14.0799 21.2278 16.5532 20.2017 18.3775 18.3775C20.2017 16.5532 21.2278 14.0799 21.2308 11.5Z" fill="#8c92a0"/>
</svg>
