<svg width="30" height="26" viewBox="0 0 30 26" fill="none" xmlns="http://www.w3.org/2000/svg">
<path d="M13.935 17.1562C13.8705 17.2176 13.8104 17.2823 13.755 17.3499C13.6982 17.4218 13.6528 17.5 13.62 17.5823C13.5768 17.6554 13.5464 17.7337 13.53 17.8146C13.5226 17.9006 13.5226 17.9869 13.53 18.0728C13.5249 18.2421 13.566 18.4101 13.65 18.5633C13.7174 18.7235 13.8249 18.869 13.9648 18.9895C14.1048 19.11 14.2739 19.2025 14.46 19.2604C14.6396 19.3287 14.8337 19.364 15.03 19.364C15.2263 19.364 15.4205 19.3287 15.6 19.2604C15.7861 19.2025 15.9552 19.11 16.0952 18.9895C16.2352 18.869 16.3426 18.7235 16.41 18.5633C16.4766 18.4064 16.5072 18.2398 16.5 18.0728C16.5011 17.9029 16.4633 17.7345 16.3887 17.5772C16.314 17.4199 16.204 17.2769 16.065 17.1562C15.9256 17.0353 15.7597 16.9392 15.5769 16.8737C15.3941 16.8081 15.198 16.7744 15 16.7744C14.802 16.7744 14.6059 16.8081 14.4231 16.8737C14.2404 16.9392 14.0744 17.0353 13.935 17.1562ZM15 0C12.0333 0 9.13319 0.757108 6.66645 2.17558C4.19972 3.59406 2.27713 5.61019 1.14181 7.96903C0.00649926 10.3279 -0.290551 12.9235 0.288228 15.4276C0.867006 17.9317 2.29562 20.2319 4.3934 22.0373C6.49119 23.8427 9.16394 25.0721 12.0737 25.5702C14.9834 26.0683 17.9994 25.8127 20.7403 24.8356C23.4811 23.8586 25.8238 22.204 27.472 20.0811C29.1203 17.9582 30 15.4623 30 12.9091C30 11.2139 29.612 9.53524 28.8582 7.96903C28.1044 6.40282 26.9995 4.97972 25.6066 3.781C24.2137 2.58228 22.5601 1.6314 20.7403 0.98265C18.9204 0.333905 16.9698 0 15 0ZM15 23.2365C12.6266 23.2365 10.3066 22.6308 8.33316 21.496C6.35977 20.3612 4.8217 18.7483 3.91345 16.8612C3.0052 14.9742 2.76756 12.8977 3.23058 10.8944C3.69361 8.89108 4.83649 7.05093 6.51472 5.60663C8.19295 4.16233 10.3312 3.17875 12.6589 2.78027C14.9867 2.38178 17.3995 2.5863 19.5922 3.36795C21.7849 4.1496 23.6591 5.47328 24.9776 7.17159C26.2962 8.86991 27 10.8666 27 12.9091C27 15.6481 25.7357 18.2749 23.4853 20.2117C21.2348 22.1484 18.1826 23.2365 15 23.2365ZM15 6.45457C14.2096 6.45413 13.433 6.63287 12.7484 6.9728C12.0637 7.31272 11.4952 7.80185 11.1 8.39094C10.9915 8.53787 10.9186 8.70218 10.8858 8.87397C10.8529 9.04577 10.8608 9.2215 10.9089 9.39061C10.9571 9.55971 11.0445 9.71869 11.1658 9.85798C11.2872 9.99727 11.4401 10.114 11.6152 10.2011C11.7904 10.2882 11.9842 10.344 12.185 10.365C12.3858 10.386 12.5895 10.3718 12.7838 10.3233C12.9781 10.2748 13.159 10.1929 13.3156 10.0827C13.4722 9.97248 13.6012 9.83613 13.695 9.68186C13.8272 9.48486 14.0175 9.32141 14.2466 9.20806C14.4758 9.09472 14.7357 9.0355 15 9.0364C15.3978 9.0364 15.7794 9.17241 16.0607 9.4145C16.342 9.65659 16.5 9.98494 16.5 10.3273C16.5 10.6697 16.342 10.998 16.0607 11.2401C15.7794 11.4822 15.3978 11.6182 15 11.6182C14.6022 11.6182 14.2206 11.7542 13.9393 11.9963C13.658 12.2384 13.5 12.5668 13.5 12.9091V14.2001C13.5 14.5424 13.658 14.8708 13.9393 15.1129C14.2206 15.355 14.6022 15.491 15 15.491C15.3978 15.491 15.7794 15.355 16.0607 15.1129C16.342 14.8708 16.5 14.5424 16.5 14.2001V13.9677C17.4921 13.6579 18.326 13.0579 18.8562 12.2726C19.3863 11.4872 19.5788 10.5665 19.4001 9.67139C19.2214 8.77627 18.6828 7.96367 17.8785 7.37566C17.0742 6.78764 16.0553 6.46162 15 6.45457Z" fill="#550FED"/>
</svg>
